<?xml version="1.0" encoding="UTF-8"?>
<!DOCTYPE svg PUBLIC "-//W3C//DTD SVG 1.1//EN" "http://www.w3.org/Graphics/SVG/1.1/DTD/svg11.dtd">
<!-- Creator: CorelDRAW 2019 (64-Bit) -->
<svg xmlns="http://www.w3.org/2000/svg" xml:space="preserve" width="254mm" height="254mm" version="1.1" style="shape-rendering:geometricPrecision; text-rendering:geometricPrecision; image-rendering:optimizeQuality; fill-rule:evenodd; clip-rule:evenodd"
viewBox="0 0 25400 25400"
 xmlns:xlink="http://www.w3.org/1999/xlink">
 <defs>
  <style type="text/css">
   <![CDATA[
    .fil5 {fill:#0F164A}
    .fil0 {fill:#303354}
    .fil1 {fill:#5E81FF}
    .fil4 {fill:#7B879D}
    .fil2 {fill:#EEF2F1}
    .fil3 {fill:#F8FAF9}
   ]]>
  </style>
 </defs>
 <g id="Слой_x0020_1">
  <metadata id="CorelCorpID_0Corel-Layer"/>
  <g id="_2892636538912">
   <path class="fil0" d="M903.95 11787.51l10287.29 -10264.88c1050.69,-955.6 2351.91,-833.29 3066.92,-1.82l10487.15 10432.66c679.55,599.05 572.43,1688.25 -829.66,1706.39l-2415.18 -12.02 -3.76 7015.2c-2.32,1628.67 -1943.73,3355.2 -3787.82,3384.97l-2527.87 0 -10973.09 -10456.54 -2924.88 66.45c-713.82,-21.17 -1442.47,-971.82 -379.1,-1870.41z"/>
   <path class="fil1" d="M4223.55 13621.7l6400.31 6083.69 1.15 4368.31 -2361.45 10.55c-2711.35,-31.49 -4025.21,-2459.28 -4022.56,-3570.92l-17.45 -6891.63z"/>
   <path class="fil2" d="M13153.63 12991.72l2518.06 -2221.52 16.99 -3552.67c2362.12,573.04 3110.45,5568.37 996.57,7302.33 -2113.88,1733.96 -4580.46,2325.58 -7092.36,72.96 -2511.91,-2252.61 -1691.34,-6269.57 909.54,-7329.57l-11.85 3446.34 2663.05 2282.13z"/>
   <path class="fil3" d="M10639.38 24064.5l4774.42 0 13.47 -8682.3c-1616.1,873.98 -3220.19,831.22 -4787.89,-13.36l0 8695.66z"/>
   <path class="fil4" d="M10648.34 16514.39c1616.03,663.08 3206.78,643.98 4774.43,0l18.45 -1139.89c-1567.41,858.99 -3185.76,872.11 -4801.84,-5.65l8.96 1145.54z"/>
   <circle class="fil5" cx="12973.89" cy="19256.26" r="626.31"/>
   <circle class="fil5" cx="12961.1" cy="21578.27" r="666.31"/>
  </g>
 </g>
</svg>
